<svg xmlns="http://www.w3.org/2000/svg" width="1440" height="360" viewBox="0 0 1440 360" fill="none">
  <defs>
    <pattern id="geo" width="120" height="120" patternUnits="userSpaceOnUse">
      <g fill="none" stroke="#C9A96B" stroke-width="1" stroke-opacity=".22">
        <path d="M60 6 69 25 88 16 84 36 103 45 84 54 88 74 69 65 60 84 51 65 32 74 36 54 17 45 36 36 32 16 51 25z"/>
        <path d="M0 60h120M60 0v120" stroke-opacity=".10"/>
        <path d="M18 18 42 42M102 18 78 42M18 102 42 78M102 102 78 78" stroke-opacity=".12"/>
        <circle cx="60" cy="60" r="12" stroke-opacity=".14"/>
      </g>
    </pattern>
    <linearGradient id="fade" x1="0" x2="1"><stop stop-color="white" stop-opacity="0"/><stop offset=".18" stop-color="white" stop-opacity=".8"/><stop offset=".82" stop-color="white" stop-opacity=".8"/><stop offset="1" stop-color="white" stop-opacity="0"/></linearGradient>
    <mask id="mask"><rect width="1440" height="360" fill="url(#fade)"/></mask>
  </defs>
  <rect width="1440" height="360" fill="url(#geo)" mask="url(#mask)"/>
</svg>